<mxfile host="app.diagrams.net" modified="2021-09-07T13:51:02.812Z" agent="5.0 (X11; Linux x86_64) AppleWebKit/537.36 (KHTML, like Gecko) Chrome/94.0.4606.31 Safari/537.36" etag="3429LujuyPuvyXFfLffs" version="15.1.0" type="github">
  <diagram id="DXFs40pIUMXJ9zdgr7qA" name="Page-1">
    <mxGraphModel dx="1422" dy="757" grid="1" gridSize="10" guides="1" tooltips="1" connect="1" arrows="1" fold="1" page="1" pageScale="1" pageWidth="690" pageHeight="980" math="0" shadow="0">
      <root>
        <mxCell id="0" />
        <mxCell id="1" parent="0" />
        <mxCell id="UE5eSIZZGUVykJdsc9LJ-1" value="" style="ellipse;html=1;shape=startState;fillColor=#000000;strokeColor=#ff0000;" vertex="1" parent="1">
          <mxGeometry x="330" y="60" width="30" height="30" as="geometry" />
        </mxCell>
        <mxCell id="UE5eSIZZGUVykJdsc9LJ-2" value="" style="edgeStyle=orthogonalEdgeStyle;html=1;verticalAlign=bottom;endArrow=open;endSize=8;strokeColor=#ff0000;entryX=0.5;entryY=0;entryDx=0;entryDy=0;" edge="1" source="UE5eSIZZGUVykJdsc9LJ-1" parent="1" target="UE5eSIZZGUVykJdsc9LJ-8">
          <mxGeometry relative="1" as="geometry">
            <mxPoint x="345" y="160" as="targetPoint" />
          </mxGeometry>
        </mxCell>
        <mxCell id="UE5eSIZZGUVykJdsc9LJ-3" value="" style="ellipse;html=1;shape=endState;fillColor=#000000;strokeColor=#ff0000;" vertex="1" parent="1">
          <mxGeometry x="330" y="930" width="30" height="30" as="geometry" />
        </mxCell>
        <mxCell id="UE5eSIZZGUVykJdsc9LJ-4" value="a % 2 == 0" style="rhombus;whiteSpace=wrap;html=1;fillColor=#ffffc0;strokeColor=#ff0000;" vertex="1" parent="1">
          <mxGeometry x="305" y="250" width="80" height="40" as="geometry" />
        </mxCell>
        <mxCell id="UE5eSIZZGUVykJdsc9LJ-5" value="no" style="edgeStyle=orthogonalEdgeStyle;html=1;align=left;verticalAlign=bottom;endArrow=open;endSize=8;strokeColor=#ff0000;entryX=0.5;entryY=0;entryDx=0;entryDy=0;" edge="1" source="UE5eSIZZGUVykJdsc9LJ-4" parent="1" target="UE5eSIZZGUVykJdsc9LJ-7">
          <mxGeometry x="-1" relative="1" as="geometry">
            <mxPoint x="360" y="340" as="targetPoint" />
          </mxGeometry>
        </mxCell>
        <mxCell id="UE5eSIZZGUVykJdsc9LJ-6" value="yes" style="edgeStyle=orthogonalEdgeStyle;html=1;align=left;verticalAlign=top;endArrow=open;endSize=8;strokeColor=#ff0000;entryX=0.5;entryY=0;entryDx=0;entryDy=0;" edge="1" source="UE5eSIZZGUVykJdsc9LJ-4" parent="1" target="UE5eSIZZGUVykJdsc9LJ-10">
          <mxGeometry x="-1" relative="1" as="geometry">
            <mxPoint x="490" y="350" as="targetPoint" />
          </mxGeometry>
        </mxCell>
        <mxCell id="UE5eSIZZGUVykJdsc9LJ-15" style="edgeStyle=orthogonalEdgeStyle;rounded=0;orthogonalLoop=1;jettySize=auto;html=1;exitX=0.5;exitY=1;exitDx=0;exitDy=0;entryX=0;entryY=0.5;entryDx=0;entryDy=0;" edge="1" parent="1" source="UE5eSIZZGUVykJdsc9LJ-7" target="UE5eSIZZGUVykJdsc9LJ-14">
          <mxGeometry relative="1" as="geometry" />
        </mxCell>
        <mxCell id="UE5eSIZZGUVykJdsc9LJ-7" value="no" style="html=1;" vertex="1" parent="1">
          <mxGeometry x="150" y="540" width="110" height="50" as="geometry" />
        </mxCell>
        <mxCell id="UE5eSIZZGUVykJdsc9LJ-9" style="edgeStyle=orthogonalEdgeStyle;rounded=0;orthogonalLoop=1;jettySize=auto;html=1;exitX=0.5;exitY=1;exitDx=0;exitDy=0;entryX=0.5;entryY=0;entryDx=0;entryDy=0;" edge="1" parent="1" source="UE5eSIZZGUVykJdsc9LJ-8" target="UE5eSIZZGUVykJdsc9LJ-4">
          <mxGeometry relative="1" as="geometry" />
        </mxCell>
        <mxCell id="UE5eSIZZGUVykJdsc9LJ-8" value="Input a" style="html=1;" vertex="1" parent="1">
          <mxGeometry x="290" y="150" width="110" height="50" as="geometry" />
        </mxCell>
        <mxCell id="UE5eSIZZGUVykJdsc9LJ-10" value="a &amp;gt;= 10" style="rhombus;whiteSpace=wrap;html=1;fillColor=#ffffc0;strokeColor=#ff0000;" vertex="1" parent="1">
          <mxGeometry x="450" y="340" width="80" height="40" as="geometry" />
        </mxCell>
        <mxCell id="UE5eSIZZGUVykJdsc9LJ-11" value="no" style="edgeStyle=orthogonalEdgeStyle;html=1;align=left;verticalAlign=bottom;endArrow=open;endSize=8;strokeColor=#ff0000;entryX=0.5;entryY=0;entryDx=0;entryDy=0;" edge="1" source="UE5eSIZZGUVykJdsc9LJ-10" parent="1" target="UE5eSIZZGUVykJdsc9LJ-7">
          <mxGeometry x="-1" relative="1" as="geometry">
            <mxPoint x="630" y="375" as="targetPoint" />
          </mxGeometry>
        </mxCell>
        <mxCell id="UE5eSIZZGUVykJdsc9LJ-12" value="yes" style="edgeStyle=orthogonalEdgeStyle;html=1;align=left;verticalAlign=top;endArrow=open;endSize=8;strokeColor=#ff0000;entryX=0.5;entryY=0;entryDx=0;entryDy=0;" edge="1" source="UE5eSIZZGUVykJdsc9LJ-10" parent="1" target="UE5eSIZZGUVykJdsc9LJ-17">
          <mxGeometry x="-1" relative="1" as="geometry">
            <mxPoint x="490" y="560" as="targetPoint" />
          </mxGeometry>
        </mxCell>
        <mxCell id="UE5eSIZZGUVykJdsc9LJ-16" style="edgeStyle=orthogonalEdgeStyle;rounded=0;orthogonalLoop=1;jettySize=auto;html=1;exitX=0.5;exitY=1;exitDx=0;exitDy=0;entryX=1;entryY=0.5;entryDx=0;entryDy=0;" edge="1" parent="1" source="UE5eSIZZGUVykJdsc9LJ-13" target="UE5eSIZZGUVykJdsc9LJ-14">
          <mxGeometry relative="1" as="geometry" />
        </mxCell>
        <mxCell id="UE5eSIZZGUVykJdsc9LJ-13" value="yes" style="html=1;" vertex="1" parent="1">
          <mxGeometry x="435" y="540" width="110" height="50" as="geometry" />
        </mxCell>
        <mxCell id="UE5eSIZZGUVykJdsc9LJ-14" value="" style="ellipse;html=1;shape=endState;fillColor=#000000;strokeColor=#ff0000;" vertex="1" parent="1">
          <mxGeometry x="330" y="770" width="30" height="30" as="geometry" />
        </mxCell>
        <mxCell id="UE5eSIZZGUVykJdsc9LJ-17" value="a &amp;lt;= 99" style="rhombus;whiteSpace=wrap;html=1;fillColor=#ffffc0;strokeColor=#ff0000;" vertex="1" parent="1">
          <mxGeometry x="450" y="430" width="80" height="40" as="geometry" />
        </mxCell>
        <mxCell id="UE5eSIZZGUVykJdsc9LJ-18" value="no" style="edgeStyle=orthogonalEdgeStyle;html=1;align=left;verticalAlign=bottom;endArrow=open;endSize=8;strokeColor=#ff0000;entryX=0.5;entryY=0;entryDx=0;entryDy=0;" edge="1" source="UE5eSIZZGUVykJdsc9LJ-17" parent="1" target="UE5eSIZZGUVykJdsc9LJ-7">
          <mxGeometry x="-1" relative="1" as="geometry">
            <mxPoint x="630" y="460" as="targetPoint" />
          </mxGeometry>
        </mxCell>
        <mxCell id="UE5eSIZZGUVykJdsc9LJ-19" value="yes" style="edgeStyle=orthogonalEdgeStyle;html=1;align=left;verticalAlign=top;endArrow=open;endSize=8;strokeColor=#ff0000;entryX=0.5;entryY=0;entryDx=0;entryDy=0;" edge="1" source="UE5eSIZZGUVykJdsc9LJ-17" parent="1" target="UE5eSIZZGUVykJdsc9LJ-13">
          <mxGeometry x="-1" relative="1" as="geometry">
            <mxPoint x="410" y="530" as="targetPoint" />
          </mxGeometry>
        </mxCell>
      </root>
    </mxGraphModel>
  </diagram>
</mxfile>
